<svg  viewBox="0 0 33 33" fill="none" xmlns="http://www.w3.org/2000/svg">
<path d="M27.625 0H4.875C3.58207 0 2.34209 0.513615 1.42785 1.42785C0.513615 2.34209 0 3.58207 0 4.875V21.125C0 22.4179 0.513615 23.6579 1.42785 24.5721C2.34209 25.4864 3.58207 26 4.875 26H23.7087L29.7213 32.0288C29.8731 32.1794 30.0532 32.2985 30.2512 32.3794C30.4491 32.4603 30.6611 32.5012 30.875 32.5C31.0882 32.5055 31.2996 32.461 31.4925 32.37C31.7893 32.2481 32.0433 32.0411 32.2226 31.775C32.4019 31.509 32.4984 31.1958 32.5 30.875V4.875C32.5 3.58207 31.9864 2.34209 31.0721 1.42785C30.1579 0.513615 28.9179 0 27.625 0ZM29.25 26.9588L25.5287 23.2213C25.3769 23.0706 25.1968 22.9515 24.9988 22.8706C24.8009 22.7898 24.5889 22.7488 24.375 22.75H4.875C4.44402 22.75 4.0307 22.5788 3.72595 22.274C3.42121 21.9693 3.25 21.556 3.25 21.125V4.875C3.25 4.44402 3.42121 4.0307 3.72595 3.72595C4.0307 3.42121 4.44402 3.25 4.875 3.25H27.625C28.056 3.25 28.4693 3.42121 28.774 3.72595C29.0788 4.0307 29.25 4.44402 29.25 4.875V26.9588Z" fill="white"/>
</svg>
