<svg width="29" height="19" viewBox="0 0 29 19" fill="none" xmlns="http://www.w3.org/2000/svg">
<path d="M14.5 0.125C8.25 0.125 2.9125 4.0125 0.75 9.5C2.9125 14.9875 8.25 18.875 14.5 18.875C20.7563 18.875 26.0875 14.9875 28.25 9.5C26.0875 4.0125 20.7563 0.125 14.5 0.125ZM14.5 15.75C11.05 15.75 8.25 12.95 8.25 9.5C8.25 6.05 11.05 3.25 14.5 3.25C17.95 3.25 20.75 6.05 20.75 9.5C20.75 12.95 17.95 15.75 14.5 15.75ZM14.5 5.75C12.4312 5.75 10.75 7.43125 10.75 9.5C10.75 11.5688 12.4312 13.25 14.5 13.25C16.5688 13.25 18.25 11.5688 18.25 9.5C18.25 7.43125 16.5688 5.75 14.5 5.75Z" fill="white"/>
</svg>
