<svg width="16" height="21" viewBox="0 0 16 21" fill="none" xmlns="http://www.w3.org/2000/svg">
<path d="M14.3 7.07975L15.21 6.17975C15.3983 5.99144 15.5041 5.73605 15.5041 5.46975C15.5041 5.20344 15.3983 4.94805 15.21 4.75975C15.0217 4.57144 14.7663 4.46565 14.5 4.46565C14.2337 4.46565 13.9783 4.57144 13.79 4.75975L12.89 5.66975C11.4886 4.5856 9.76687 3.99738 7.99503 3.99738C6.22318 3.99738 4.50147 4.5856 3.10003 5.66975L2.19003 4.74975C2.0004 4.56144 1.74373 4.45618 1.47649 4.45712C1.20925 4.45806 0.95333 4.56512 0.765026 4.75475C0.576722 4.94438 0.471462 5.20104 0.472399 5.46828C0.473337 5.73552 0.580396 5.99144 0.770026 6.17975L1.69003 7.08975C0.593042 8.48729 -0.00218316 10.2131 2.6229e-05 11.9897C-0.00323946 13.2652 0.29849 14.5229 0.88005 15.658C1.46161 16.7931 2.30614 17.7728 3.34322 18.5152C4.38029 19.2576 5.57985 19.7413 6.84184 19.926C8.10383 20.1106 9.39168 19.9908 10.598 19.5766C11.8043 19.1624 12.8941 18.4658 13.7764 17.5449C14.6588 16.624 15.3082 15.5054 15.6705 14.2825C16.0328 13.0596 16.0974 11.7678 15.859 10.5149C15.6206 9.26194 15.0861 8.08415 14.3 7.07975ZM8.00003 17.9897C6.81334 17.9897 5.6533 17.6379 4.6666 16.9786C3.67991 16.3193 2.91087 15.3822 2.45675 14.2858C2.00262 13.1895 1.8838 11.9831 2.11531 10.8192C2.34683 9.65532 2.91827 8.58622 3.75739 7.74711C4.5965 6.90799 5.6656 6.33655 6.82948 6.10503C7.99337 5.87352 9.19977 5.99234 10.2961 6.44647C11.3925 6.90059 12.3296 7.66963 12.9888 8.65632C13.6481 9.64302 14 10.8031 14 11.9897C14 13.581 13.3679 15.1072 12.2427 16.2324C11.1174 17.3576 9.59133 17.9897 8.00003 17.9897ZM6.00003 2.98975H10C10.2652 2.98975 10.5196 2.88439 10.7071 2.69685C10.8947 2.50932 11 2.25496 11 1.98975C11 1.72453 10.8947 1.47018 10.7071 1.28264C10.5196 1.0951 10.2652 0.989746 10 0.989746H6.00003C5.73481 0.989746 5.48046 1.0951 5.29292 1.28264C5.10538 1.47018 5.00003 1.72453 5.00003 1.98975C5.00003 2.25496 5.10538 2.50932 5.29292 2.69685C5.48046 2.88439 5.73481 2.98975 6.00003 2.98975ZM9.00003 8.98975C9.00003 8.72453 8.89467 8.47018 8.70713 8.28264C8.5196 8.0951 8.26524 7.98975 8.00003 7.98975C7.73481 7.98975 7.48046 8.0951 7.29292 8.28264C7.10538 8.47018 7.00003 8.72453 7.00003 8.98975V10.8797C6.7736 11.0823 6.614 11.3488 6.54235 11.644C6.47069 11.9392 6.49037 12.2492 6.59877 12.533C6.70717 12.8168 6.89918 13.061 7.14939 13.2333C7.39961 13.4055 7.69624 13.4978 8.00003 13.4978C8.30381 13.4978 8.60044 13.4055 8.85066 13.2333C9.10088 13.061 9.29289 12.8168 9.40129 12.533C9.50968 12.2492 9.52936 11.9392 9.45771 11.644C9.38606 11.3488 9.22646 11.0823 9.00003 10.8797V8.98975Z" fill="black"/>
</svg>
